<mxfile host="Electron" agent="Mozilla/5.0 (Windows NT 10.0; Win64; x64) AppleWebKit/537.36 (KHTML, like Gecko) draw.io/26.2.15 Chrome/134.0.6998.205 Electron/35.2.1 Safari/537.36" version="26.2.15">
  <diagram name="Page-1" id="r0Q452NSU152St6k87Gs">
    <mxGraphModel dx="1869" dy="1113" grid="1" gridSize="10" guides="1" tooltips="1" connect="1" arrows="1" fold="1" page="1" pageScale="1" pageWidth="1700" pageHeight="1100" math="0" shadow="0">
      <root>
        <mxCell id="0" />
        <mxCell id="1" parent="0" />
        <mxCell id="qjd0KvWOnQlyYGZiVKTH-1" value="Operation" style="rounded=0;whiteSpace=wrap;html=1;" vertex="1" parent="1">
          <mxGeometry x="453" y="250" width="120" height="60" as="geometry" />
        </mxCell>
        <mxCell id="qjd0KvWOnQlyYGZiVKTH-2" value="Data file&lt;div&gt;[TBD]&lt;/div&gt;" style="shape=cylinder3;whiteSpace=wrap;html=1;boundedLbl=1;backgroundOutline=1;size=15;" vertex="1" parent="1">
          <mxGeometry x="253" y="170" width="90" height="110" as="geometry" />
        </mxCell>
        <mxCell id="qjd0KvWOnQlyYGZiVKTH-3" value="New HU by target geo&lt;div&gt;(Address points)&lt;/div&gt;" style="ellipse;whiteSpace=wrap;html=1;" vertex="1" parent="1">
          <mxGeometry x="623" y="240" width="120" height="80" as="geometry" />
        </mxCell>
        <mxCell id="qjd0KvWOnQlyYGZiVKTH-4" value="&lt;h1 style=&quot;margin-top: 0px;&quot;&gt;Notes&lt;/h1&gt;&lt;ol&gt;&lt;li&gt;Numbers in square brackets refer to data, process, or workflow identifiers as defined in the &lt;a href=&quot;https://morpc1.sharepoint.com/:x:/s/GISteam/EfC4j3HhohZCrSZzxJdyt5cBFEqVD7zHick8ZW0INqgCYA?e=0WhrAI&quot;&gt;Data Team Master Document List&lt;/a&gt;.&lt;/li&gt;&lt;/ol&gt;&lt;p&gt;&lt;/p&gt;" style="text;html=1;whiteSpace=wrap;overflow=hidden;rounded=0;spacing=10;strokeColor=default;" vertex="1" parent="1">
          <mxGeometry x="50" y="790" width="590" height="230" as="geometry" />
        </mxCell>
        <mxCell id="qjd0KvWOnQlyYGZiVKTH-5" value="&lt;h1 style=&quot;margin-top: 0px;&quot;&gt;Process Flow Template (title)&lt;/h1&gt;&lt;div&gt;&lt;font style=&quot;font-size: 15px; line-height: 100%;&quot;&gt;Workflow #TBD&lt;/font&gt;&lt;/div&gt;&lt;p&gt;&lt;/p&gt;" style="text;html=1;whiteSpace=wrap;overflow=hidden;rounded=0;align=center;" vertex="1" parent="1">
          <mxGeometry x="555" y="40" width="595" height="80" as="geometry" />
        </mxCell>
        <mxCell id="qjd0KvWOnQlyYGZiVKTH-6" value="Data file&amp;nbsp;&lt;div&gt;&lt;span style=&quot;background-color: transparent; color: light-dark(rgb(0, 0, 0), rgb(255, 255, 255));&quot;&gt;[TBD]&lt;/span&gt;&lt;/div&gt;" style="shape=cylinder3;whiteSpace=wrap;html=1;boundedLbl=1;backgroundOutline=1;size=15;" vertex="1" parent="1">
          <mxGeometry x="253" y="300" width="90" height="110" as="geometry" />
        </mxCell>
        <mxCell id="qjd0KvWOnQlyYGZiVKTH-7" value="External process" style="shape=process;whiteSpace=wrap;html=1;backgroundOutline=1;" vertex="1" parent="1">
          <mxGeometry x="843" y="380" width="120" height="60" as="geometry" />
        </mxCell>
        <mxCell id="qjd0KvWOnQlyYGZiVKTH-8" value="New HU by target geo&lt;div&gt;(Address points)&lt;/div&gt;" style="ellipse;whiteSpace=wrap;html=1;" vertex="1" parent="1">
          <mxGeometry x="1013" y="370" width="120" height="80" as="geometry" />
        </mxCell>
        <mxCell id="qjd0KvWOnQlyYGZiVKTH-9" value="Write data to disk and validate" style="rounded=0;whiteSpace=wrap;html=1;" vertex="1" parent="1">
          <mxGeometry x="1183" y="380" width="120" height="60" as="geometry" />
        </mxCell>
        <mxCell id="qjd0KvWOnQlyYGZiVKTH-10" value="Data file&amp;nbsp;&lt;div&gt;&lt;span style=&quot;background-color: transparent; color: light-dark(rgb(0, 0, 0), rgb(255, 255, 255));&quot;&gt;[TBD]&lt;/span&gt;&lt;/div&gt;" style="shape=cylinder3;whiteSpace=wrap;html=1;boundedLbl=1;backgroundOutline=1;size=15;" vertex="1" parent="1">
          <mxGeometry x="253" y="430" width="90" height="110" as="geometry" />
        </mxCell>
        <mxCell id="qjd0KvWOnQlyYGZiVKTH-11" value="" style="edgeStyle=elbowEdgeStyle;elbow=horizontal;endArrow=classic;html=1;curved=0;rounded=0;endSize=8;startSize=8;exitX=1;exitY=0.5;exitDx=0;exitDy=0;exitPerimeter=0;entryX=0;entryY=0.25;entryDx=0;entryDy=0;" edge="1" parent="1" source="qjd0KvWOnQlyYGZiVKTH-2" target="qjd0KvWOnQlyYGZiVKTH-1">
          <mxGeometry width="50" height="50" relative="1" as="geometry">
            <mxPoint x="813" y="450" as="sourcePoint" />
            <mxPoint x="863" y="400" as="targetPoint" />
          </mxGeometry>
        </mxCell>
        <mxCell id="qjd0KvWOnQlyYGZiVKTH-12" value="" style="edgeStyle=elbowEdgeStyle;elbow=horizontal;endArrow=classic;html=1;curved=0;rounded=0;endSize=8;startSize=8;exitX=1;exitY=0.5;exitDx=0;exitDy=0;exitPerimeter=0;entryX=0;entryY=0.75;entryDx=0;entryDy=0;" edge="1" parent="1" source="qjd0KvWOnQlyYGZiVKTH-6" target="qjd0KvWOnQlyYGZiVKTH-1">
          <mxGeometry width="50" height="50" relative="1" as="geometry">
            <mxPoint x="353" y="235" as="sourcePoint" />
            <mxPoint x="433" y="340" as="targetPoint" />
          </mxGeometry>
        </mxCell>
        <mxCell id="qjd0KvWOnQlyYGZiVKTH-13" value="" style="edgeStyle=elbowEdgeStyle;elbow=vertical;endArrow=classic;html=1;curved=0;rounded=0;endSize=8;startSize=8;entryX=0;entryY=0.5;entryDx=0;entryDy=0;exitX=1;exitY=0.5;exitDx=0;exitDy=0;" edge="1" parent="1" source="qjd0KvWOnQlyYGZiVKTH-1" target="qjd0KvWOnQlyYGZiVKTH-3">
          <mxGeometry width="50" height="50" relative="1" as="geometry">
            <mxPoint x="613" y="410" as="sourcePoint" />
            <mxPoint x="463" y="305" as="targetPoint" />
          </mxGeometry>
        </mxCell>
        <mxCell id="qjd0KvWOnQlyYGZiVKTH-15" value="" style="edgeStyle=elbowEdgeStyle;elbow=horizontal;endArrow=classic;html=1;curved=0;rounded=0;endSize=8;startSize=8;exitX=1;exitY=0.5;exitDx=0;exitDy=0;exitPerimeter=0;entryX=0;entryY=0.75;entryDx=0;entryDy=0;" edge="1" parent="1" source="qjd0KvWOnQlyYGZiVKTH-10" target="qjd0KvWOnQlyYGZiVKTH-7">
          <mxGeometry width="50" height="50" relative="1" as="geometry">
            <mxPoint x="353" y="365" as="sourcePoint" />
            <mxPoint x="463" y="305" as="targetPoint" />
            <Array as="points">
              <mxPoint x="793" y="460" />
            </Array>
          </mxGeometry>
        </mxCell>
        <mxCell id="qjd0KvWOnQlyYGZiVKTH-16" value="" style="edgeStyle=elbowEdgeStyle;elbow=horizontal;endArrow=classic;html=1;curved=0;rounded=0;endSize=8;startSize=8;exitX=1;exitY=0.5;exitDx=0;exitDy=0;entryX=0;entryY=0.25;entryDx=0;entryDy=0;" edge="1" parent="1" source="qjd0KvWOnQlyYGZiVKTH-3" target="qjd0KvWOnQlyYGZiVKTH-7">
          <mxGeometry width="50" height="50" relative="1" as="geometry">
            <mxPoint x="353" y="495" as="sourcePoint" />
            <mxPoint x="813" y="435" as="targetPoint" />
          </mxGeometry>
        </mxCell>
        <mxCell id="qjd0KvWOnQlyYGZiVKTH-18" value="" style="edgeStyle=elbowEdgeStyle;elbow=horizontal;endArrow=classic;html=1;curved=0;rounded=0;endSize=8;startSize=8;exitX=1;exitY=0.5;exitDx=0;exitDy=0;entryX=0;entryY=0.5;entryDx=0;entryDy=0;" edge="1" parent="1" source="qjd0KvWOnQlyYGZiVKTH-7" target="qjd0KvWOnQlyYGZiVKTH-8">
          <mxGeometry width="50" height="50" relative="1" as="geometry">
            <mxPoint x="353" y="495" as="sourcePoint" />
            <mxPoint x="853" y="435" as="targetPoint" />
            <Array as="points">
              <mxPoint x="993" y="450" />
            </Array>
          </mxGeometry>
        </mxCell>
        <mxCell id="qjd0KvWOnQlyYGZiVKTH-19" value="" style="edgeStyle=elbowEdgeStyle;elbow=horizontal;endArrow=classic;html=1;curved=0;rounded=0;endSize=8;startSize=8;exitX=1;exitY=0.5;exitDx=0;exitDy=0;entryX=0;entryY=0.5;entryDx=0;entryDy=0;" edge="1" parent="1" source="qjd0KvWOnQlyYGZiVKTH-8" target="qjd0KvWOnQlyYGZiVKTH-9">
          <mxGeometry width="50" height="50" relative="1" as="geometry">
            <mxPoint x="973" y="420" as="sourcePoint" />
            <mxPoint x="1023" y="420" as="targetPoint" />
            <Array as="points">
              <mxPoint x="1163" y="430" />
            </Array>
          </mxGeometry>
        </mxCell>
        <mxCell id="qjd0KvWOnQlyYGZiVKTH-20" value="Data file&amp;nbsp;&lt;div&gt;&lt;span style=&quot;background-color: transparent; color: light-dark(rgb(0, 0, 0), rgb(255, 255, 255));&quot;&gt;[TBD]&lt;/span&gt;&lt;/div&gt;" style="shape=cylinder3;whiteSpace=wrap;html=1;boundedLbl=1;backgroundOutline=1;size=15;" vertex="1" parent="1">
          <mxGeometry x="1358" y="355" width="90" height="110" as="geometry" />
        </mxCell>
        <mxCell id="qjd0KvWOnQlyYGZiVKTH-21" value="" style="edgeStyle=elbowEdgeStyle;elbow=horizontal;endArrow=classic;html=1;curved=0;rounded=0;endSize=8;startSize=8;entryX=0;entryY=0.5;entryDx=0;entryDy=0;entryPerimeter=0;exitX=1;exitY=0.5;exitDx=0;exitDy=0;" edge="1" parent="1" source="qjd0KvWOnQlyYGZiVKTH-9" target="qjd0KvWOnQlyYGZiVKTH-20">
          <mxGeometry width="50" height="50" relative="1" as="geometry">
            <mxPoint x="1358" y="510" as="sourcePoint" />
            <mxPoint x="1193" y="420" as="targetPoint" />
            <Array as="points">
              <mxPoint x="1338" y="430" />
            </Array>
          </mxGeometry>
        </mxCell>
        <mxCell id="qjd0KvWOnQlyYGZiVKTH-22" value="&lt;h1 style=&quot;margin-top: 0px;&quot;&gt;Legend&lt;/h1&gt;&lt;p&gt;&lt;/p&gt;" style="text;html=1;whiteSpace=wrap;overflow=hidden;rounded=0;spacing=10;strokeColor=default;align=center;" vertex="1" parent="1">
          <mxGeometry x="1220" y="640" width="410" height="390" as="geometry" />
        </mxCell>
        <mxCell id="qjd0KvWOnQlyYGZiVKTH-23" value="Data file&lt;div&gt;[NNN[&lt;/div&gt;&lt;div&gt;(note 1)&lt;/div&gt;" style="shape=cylinder3;whiteSpace=wrap;html=1;boundedLbl=1;backgroundOutline=1;size=15;" vertex="1" parent="1">
          <mxGeometry x="1280" y="730" width="90" height="110" as="geometry" />
        </mxCell>
        <mxCell id="qjd0KvWOnQlyYGZiVKTH-25" value="Internal process or operation" style="rounded=0;whiteSpace=wrap;html=1;" vertex="1" parent="1">
          <mxGeometry x="1465" y="755" width="120" height="60" as="geometry" />
        </mxCell>
        <mxCell id="qjd0KvWOnQlyYGZiVKTH-27" value="External process or workflow" style="shape=process;whiteSpace=wrap;html=1;backgroundOutline=1;" vertex="1" parent="1">
          <mxGeometry x="1465" y="900" width="120" height="60" as="geometry" />
        </mxCell>
        <mxCell id="qjd0KvWOnQlyYGZiVKTH-28" value="Data in memory" style="ellipse;whiteSpace=wrap;html=1;" vertex="1" parent="1">
          <mxGeometry x="1265" y="890" width="120" height="80" as="geometry" />
        </mxCell>
      </root>
    </mxGraphModel>
  </diagram>
</mxfile>
